PathFileType	4	(X/Y/Z)	..\data\2015026\dynamic\2015026_C4_04.trc
DataRate	CameraRate	NumFrames	NumMarkers	Units	OrigDataRate	OrigDataStartFrame	OrigNumFrames
100.000000	100.000000	4	48	mm	100.000000	100	160
Frame#	Time	L_IAS			L_IPS			R_IPS			R_IAS			L_FTC			L_FLE			L_FAX			L_TTC			L_FAL			L_FCC			L_FM1			L_FM2			L_FM5			R_FTC			R_FLE			R_FAX			R_TTC			R_FAL			R_FCC			R_FM1			R_FM2			R_FM5			CV7			TV10			SXS			SJN			L_SIA			L_SRS			L_SAA			L_SAE			L_HLE			L_HME			L_UOA			L_RSP			L_UHE			L_HM2			L_HM5			R_SIA			R_SRS			R_SAA			R_SAE			R_HLE			R_HME			R_UOA			R_RSP			R_UHE			R_HM2			R_HM5			
		X1	Y1	Z1	X2	Y2	Z2	X3	Y3	Z3	X4	Y4	Z4	X5	Y5	Z5	X6	Y6	Z6	X7	Y7	Z7	X8	Y8	Z8	X9	Y9	Z9	X10	Y10	Z10	X11	Y11	Z11	X12	Y12	Z12	X13	Y13	Z13	X14	Y14	Z14	X15	Y15	Z15	X16	Y16	Z16	X17	Y17	Z17	X18	Y18	Z18	X19	Y19	Z19	X20	Y20	Z20	X21	Y21	Z21	X22	Y22	Z22	X23	Y23	Z23	X24	Y24	Z24	X25	Y25	Z25	X26	Y26	Z26	X27	Y27	Z27	X28	Y28	Z28	X29	Y29	Z29	X30	Y30	Z30	X31	Y31	Z31	X32	Y32	Z32	X33	Y33	Z33	X34	Y34	Z34	X35	Y35	Z35	X36	Y36	Z36	X37	Y37	Z37	X38	Y38	Z38	X39	Y39	Z39	X40	Y40	Z40	X41	Y41	Z41	X42	Y42	Z42	X43	Y43	Z43	X44	Y44	Z44	X45	Y45	Z45	X46	Y46	Z46	X47	Y47	Z47	X48	Y48	Z48	

101	1	1076.736083984375	928.5017700195315	-305.7619323730469	885.2886352539065	914.256530761719	-260.3484802246094	883.5913696289065	925.2108154296877	-147.5843200683594	1073.481689453125	925.388610839844	-81.66097259521486	1020.20556640625	837.8870849609377	-374.8892517089844	1187.634643554688	455.9615173339845	-307.2533569335938	1180.410034179688	398.8016662597657	-308.6692199707032	1248.67041015625	412.1291503906251	-263.1271972656251	1295.873657226563	73.0694046020508	-286.5931396484376	1272.525024414063	14.01984119415284	-242.8750152587891	1451.836669921875	74.20897674560548	-224.3501739501954	1445.718994140625	86.4142303466797	-274.6543884277344	1412.76318359375	56.33472061157228	-319.0084533691407	975.2225341796877	838.8515625000002	-28.27916908264161	906.2024536132815	457.1576232910157	-105.2505416870117	863.9556884765627	404.3296203613282	-104.9326553344727	916.478454589844	378.6669921875001	-154.7777709960938	763.9017333984376	68.33485412597658	-133.1178283691407	714.6830444335939	30.02700805664063	-175.0541534423828	911.6253662109377	23.14748573303223	-211.2933807373047	913.3305664062502	35.24420547485352	-154.4705657958985	868.9861450195315	17.61491584777832	-103.2079467773438	921.4067993164065	1408.004760742188	-197.2542877197266	845.8546142578127	1169.715942382813	-209.6463928222657	1068.10595703125	1103.422119140625	-213.6452178955079	1040.296752929688	1321.162841796875	-209.0277099609376	842.7332153320315	1206.535278320313	-286.4678344726563	872.9978027343752	1339.281494140625	-284.7170410156251	913.1990356445315	1348.182373046875	-366.9632873535157	954.8565063476565	1344.76806640625	-387.7165527343751	905.4542236328127	1037.792236328125	-447.7075195312501	867.8087158203127	1034.22314453125	-377.9935302734376	869.8713989257815	1029.869750976563	-425.5677185058595	944.265563964844	794.4878540039065	-398.489471435547	885.1914062500002	806.5403442382815	-448.9431152343751	944.4078369140627	711.0930786132814	-397.4671936035157	859.4881591796877	735.9265747070314	-445.3623962402345	845.7310180664065	1206.038696289063	-123.6138534545899	874.6811523437502	1336.448486328125	-152.5938110351563	921.7586059570315	1347.496215820313	-47.13068771362305	976.3369750976565	1344.503540039063	-27.53398323059083	992.5740966796877	1037.001831054688	46.42668914794923	972.6950683593752	1012.139770507813	-26.10644912719727	967.4836425781252	1002.648010253906	19.74900054931641	1165.304443359375	849.0109863281252	49.99105072021486	1094.723754882813	811.0072021484377	56.18428421020509	1212.334228515625	778.4338989257815	64.62285614013673	1117.60986328125	742.5569458007814	62.36523437500001	
102	1.01	1090.188842773438	926.6887817382815	-305.5154418945313	898.3280029296877	912.056335449219	-260.7732543945313	896.1762695312502	922.6141357421877	-148.0692291259766	1085.885009765625	923.4607543945315	-81.38511657714845	1033.446533203125	836.122009277344	-374.9601135253907	1201.85791015625	454.8372802734376	-305.5547485351563	1194.979614257813	397.5755920410157	-307.2956237792969	1262.566040039063	411.4885864257814	-260.8005065917969	1313.46484375	73.00819396972658	-284.7660217285157	1290.1953125	13.65767669677735	-241.5547332763672	1468.940063476563	75.28108978271486	-220.8081817626954	1463.396728515625	87.5554656982422	-271.2623291015626	1431.03271484375	57.15750885009767	-315.8293457031251	987.348815917969	836.4821777343752	-28.47660446166993	916.4062500000002	455.739959716797	-106.1158599853516	873.0484619140627	403.6419372558595	-105.8663711547852	925.057067871094	376.9918212890626	-155.9107360839844	764.8112792968751	69.9781951904297	-133.7445831298828	714.7180175781251	32.5606803894043	-175.6333312988282	912.276550292969	22.60620307922364	-211.4437713623047	914.0230712890627	35.20563888549805	-154.5409240722657	869.107360839844	17.80051231384278	-103.4251022338867	933.826843261719	1405.820678710938	-197.9129486083985	858.2655029296877	1167.59521484375	-210.2687225341797	1080.6533203125	1101.227172851563	-213.6856536865235	1052.828857421875	1318.927978515625	-209.3720397949219	855.2281494140627	1204.270874023438	-286.9248962402344	885.6170043945315	1337.01611328125	-285.3170166015626	925.9235839843752	1345.566650390625	-367.4869689941407	967.622985839844	1342.178466796875	-388.2402343750001	917.9842529296877	1035.100830078125	-447.2622070312501	880.4395751953127	1031.557250976563	-377.5869445800782	882.5151367187502	1027.370849609375	-425.0735778808595	955.2351684570315	791.611267089844	-398.0832824707032	896.4351196289065	804.0913696289065	-448.7744140625001	954.4328613281252	708.2438354492189	-396.9116210937501	869.9910888671877	733.8016967773439	-445.1830444335939	857.9722900390627	1203.987670898438	-124.172348022461	886.9821777343752	1334.418823242188	-153.2705383300782	933.917907714844	1345.383911132813	-47.69024276733399	988.573669433594	1342.412109375	-28.09088516235352	1006.214477539063	1035.1962890625	46.1987533569336	986.1679687500002	1010.098693847656	-26.29167938232423	981.1772460937502	1000.5859375	19.56273078918457	1180.0654296875	848.1668090820315	49.29773330688478	1109.721313476563	809.6856079101565	55.6821975708008	1227.574584960938	777.9637451171877	63.89038848876955	1133.09814453125	741.4173583984376	61.89592361450197	
103	1.02	1103.813354492188	925.133483886719	-305.2672424316407	911.5552368164065	910.2248535156252	-261.2874755859376	908.9349365234377	920.3521118164065	-148.6360015869141	1098.429931640625	921.8250122070315	-81.10818481445314	1046.933715820313	834.7006835937502	-375.0452880859376	1216.389404296875	453.9973754882814	-304.0102539062501	1209.574829101563	396.7149047851564	-306.0498046875001	1276.382080078125	410.7975463867189	-258.4860839843751	1328.20703125	72.6996536254883	-282.9330139160157	1304.412353515625	13.36275100708008	-240.3470458984376	1482.961181640625	74.88035583496095	-216.9864349365235	1478.220703125	87.23740386962892	-267.5771484375001	1446.242797851563	56.79635238647462	-312.4489746093751	999.5145263671877	834.4155883789065	-28.75520324707032	927.0985107421877	454.4729919433595	-106.9229888916016	882.5926513671877	403.1311950683595	-106.7747650146485	934.1105957031252	375.4313964843751	-156.9624786376953	765.8061523437501	72.10102844238283	-134.2651824951172	714.8338012695314	35.78125000000001	-176.1533660888672	912.8958129882815	22.18497657775879	-211.5120697021485	914.682800292969	35.14738082885743	-154.5538940429688	869.145202636719	17.92316246032715	-103.6915130615235	946.3508911132815	1403.949829101563	-198.6866302490235	870.8457641601565	1165.755126953125	-210.995346069336	1093.40087890625	1099.386108398438	-213.7221069335938	1065.475952148438	1317.037963867188	-209.7753906250001	867.8897094726565	1202.310302734375	-287.5054321289063	898.3792114257815	1335.041381835938	-286.0346069335938	938.8665161132815	1343.250854492188	-368.1087646484376	980.5677490234377	1339.88916015625	-388.8479919433595	930.8774414062502	1032.68994140625	-446.9208984375001	893.3845825195315	1029.1669921875	-377.2681579589844	895.4654541015627	1025.132202148438	-424.6706542968751	966.7266235351565	789.0482177734377	-397.7380676269532	908.2047119140627	801.9063110351565	-448.6802062988282	965.075378417969	705.7081909179689	-396.4603271484376	881.109558105469	731.9244384765626	-445.1354370117189	870.3543701171877	1202.208374023438	-124.8656997680664	899.3786621093752	1332.6865234375	-154.0804138183594	946.1160278320315	1343.598388671875	-48.36493301391603	1000.83642578125	1340.654663085938	-28.70334815979005	1019.580444335938	1033.661376953125	45.80851745605469	999.3801879882815	1008.379211425781	-26.65550804138184	994.572448730469	998.844665527344	19.1942310333252	1194.265014648438	847.3482055664065	48.48794555664064	1124.11328125	808.5299072265627	55.04288482666017	1242.141357421875	777.4182128906252	63.03119277954103	1147.84765625	740.3833618164064	61.25245666503908	
104	1.03	1117.596069335938	923.885681152344	-305.0366516113282	924.974304199219	908.8054199218752	-261.8934020996094	921.8829345703127	918.4830322265627	-149.2828826904297	1111.131103515625	920.5230102539065	-80.85633850097658	1060.700073242188	833.6733398437502	-375.1554260253907	1231.135375976563	453.4238891601564	-302.6180419921876	1224.140258789063	396.193084716797	-304.9260253906251	1290.080444335938	410.0683898925782	-256.2001647949219	1340.301025390625	72.12722778320314	-281.1342773437501	1315.397827148438	13.11302471160889	-239.281967163086	1494.122436523438	73.01517486572267	-212.975570678711	1490.398803710938	85.46713256835939	-263.6846618652344	1458.581298828125	55.26626205444337	-308.9659729003907	1011.755859375	832.7083740234377	-29.12196350097657	938.378356933594	453.3697204589845	-107.597152709961	892.6949462890627	402.8110656738282	-107.5841217041016	943.7438964843752	373.9859313964844	-157.827133178711	766.9722290039064	74.78404998779298	-134.6177978515625	715.1404418945314	39.81130981445313	-176.5614318847657	913.4163208007815	21.87209510803223	-211.5238800048829	915.2498779296877	35.04265213012696	-154.5306243896485	869.070007324219	17.97189331054688	-104.0160827636719	958.9821777343752	1402.433837890625	-199.564193725586	883.5952758789065	1164.235229492188	-211.8165588378907	1106.354858398438	1097.946899414063	-213.7650604248047	1078.238403320313	1315.538940429688	-210.2356872558594	880.7226562500002	1200.697631835938	-288.2033386230469	911.2828369140627	1333.401733398438	-286.8614501953126	952.0275878906252	1341.29296875	-368.8250732421876	993.684753417969	1337.955200195313	-389.5332336425782	944.0926513671877	1030.61962890625	-446.6871337890626	906.6385498046877	1027.10791015625	-377.0326843261719	908.7196044921877	1023.203308105469	-424.3578491210939	978.7609863281252	786.8562622070315	-397.4632263183595	920.5048828125002	800.0342407226565	-448.6563720703126	976.3750000000002	703.5411376953126	-396.1170043945314	892.8605957031252	730.3331298828126	-445.2015991210939	882.8862304687502	1200.73974609375	-125.6859207153321	911.876159667969	1331.289672851563	-155.0100402832032	958.3645629882815	1342.18115234375	-49.14327621459962	1013.134399414063	1339.271118164063	-29.36480140686036	1032.650634765625	1032.427856445313	45.26104354858399	1012.311096191406	1007.018920898438	-27.19290351867676	1007.647277832031	997.4584960937502	18.64774894714356	1207.880004882813	846.5765380859377	47.57031250000001	1137.874755859375	807.559997558594	54.27161788940431	1256.011108398438	776.8194580078127	62.05198287963869	1161.831298828125	739.4763183593751	60.44660568237306	
